<?xml version="1.0" encoding="iso-8859-1"?>
<!-- Generator: Adobe Illustrator 19.0.0, SVG Export Plug-In . SVG Version: 6.00 Build 0)  -->
<svg version="1.1" id="Capa_1" xmlns="http://www.w3.org/2000/svg" xmlns:xlink="http://www.w3.org/1999/xlink" x="0px" y="0px"
	 viewBox="0 0 480 480" style="enable-background:new 0 0 480 480;" xml:space="preserve">
<g>
	<g>
		<path d="M437.248,79.936H288c-9.856-25.352-24.052-48.792-41.952-69.272c-3.137-3.327-8.378-3.481-11.705-0.343
			c-0.118,0.111-0.232,0.226-0.343,0.343c-17.917,20.476-32.13,43.917-42,69.272H42.752C19.152,79.962,0.026,99.087,0,122.688
			v234.496c0.026,23.6,19.152,42.726,42.752,42.752h394.496c23.6-0.026,42.726-19.152,42.752-42.752V122.688
			C479.974,99.087,460.848,79.962,437.248,79.936z M240,28.392c18.333,22.93,31.851,49.323,39.744,77.6
			c-25.977,7.415-53.511,7.415-79.488,0C208.149,77.715,221.667,51.321,240,28.392z M192,199.936v-34.96
			c0.058-14.585,1.58-29.127,4.544-43.408c14.138,4.014,28.76,6.068,43.456,6.104c14.696-0.036,29.318-2.09,43.456-6.104
			c2.964,14.281,4.487,28.823,4.544,43.408v82.96h-96V199.936z M464,357.184c-0.018,14.767-11.985,26.734-26.752,26.752H42.752
			C27.985,383.918,16.018,371.951,16,357.184V122.688c0.018-14.767,11.985-26.734,26.752-26.752h143.704
			c-6.917,22.361-10.442,45.633-10.456,69.04v27.512c-31.967,4.056-55.946,31.225-56,63.448c0,4.418,3.582,8,8,8h8v24
			c0,4.418,3.582,8,8,8s8-3.582,8-8v-24h16v88c0,4.418,3.582,8,8,8s8-3.582,8-8v-88h112v96c0,4.418,3.582,8,8,8s8-3.582,8-8v-96h16
			v40c0,4.418,3.582,8,8,8s8-3.582,8-8v-40h8c4.418,0,8-3.582,8-8c-0.054-32.223-24.033-59.392-56-63.448v-27.512
			c-0.014-23.407-3.539-46.679-10.456-69.04h143.704c14.767,0.018,26.734,11.985,26.752,26.752V357.184z M176,208.6v39.336h-39.336
			C140.105,227.807,155.872,212.041,176,208.6z M304,247.936V208.6c20.128,3.441,35.895,19.208,39.336,39.336H304z"/>
	</g>
</g>
<g>
	<g>
		<path d="M472,423.936H8c-4.418,0-8,3.582-8,8v32c0,4.418,3.582,8,8,8h464c4.418,0,8-3.582,8-8v-32
			C480,427.517,476.418,423.936,472,423.936z M464,455.936H16v-16h448V455.936z"/>
	</g>
</g>
<g>
	<g>
		<path d="M240,151.936c-17.673,0-32,14.327-32,32s14.327,32,32,32c17.673,0,32-14.327,32-32S257.673,151.936,240,151.936z
			 M240,199.936c-8.837,0-16-7.163-16-16s7.163-16,16-16s16,7.163,16,16S248.837,199.936,240,199.936z"/>
	</g>
</g>
<g>
	<g>
		<path d="M240,279.936c-17.673,0-32,14.327-32,32c-0.043,16.254,6.418,31.85,17.944,43.312L240,369.312l14.056-14.064
			c11.526-11.462,17.987-27.058,17.944-43.312C272,294.263,257.673,279.936,240,279.936z M242.744,343.936L240,346.68l-2.744-2.744
			c-8.514-8.469-13.287-19.991-13.256-32c0.014-4.241,1.698-8.305,4.688-11.312c6.248-6.246,16.376-6.246,22.624,0
			c2.99,3.007,4.674,7.071,4.688,11.312C256.031,323.944,251.258,335.467,242.744,343.936z"/>
	</g>
</g>
<g>
	<g>
		<path d="M144,311.936c-4.418,0-8,3.582-8,8v8c0,4.418,3.582,8,8,8s8-3.582,8-8v-8C152,315.517,148.418,311.936,144,311.936z"/>
	</g>
</g>
<g>
	<g>
		<path d="M336,327.936c-4.418,0-8,3.582-8,8v8c0,4.418,3.582,8,8,8s8-3.582,8-8v-8C344,331.517,340.418,327.936,336,327.936z"/>
	</g>
</g>
<g>
</g>
<g>
</g>
<g>
</g>
<g>
</g>
<g>
</g>
<g>
</g>
<g>
</g>
<g>
</g>
<g>
</g>
<g>
</g>
<g>
</g>
<g>
</g>
<g>
</g>
<g>
</g>
<g>
</g>
</svg>
