<?xml-stylesheet type="text/css" href="svg-style.css"?>
<svg display="none" xmlns="http://www.w3.org/2000/svg">
	<symbol id="search" viewBox="0 0 250.313 250.313" preserveAspectRatio="xMinYMin meet">
		<path d="M244.186,214.604l-54.379-54.378c-0.289-0.289-0.628-0.491-0.93-0.76
			c10.7-16.231,16.945-35.66,16.945-56.554C205.822,46.075,159.747,0,102.911,0S0,46.075,0,102.911
			c0,56.835,46.074,102.911,102.91,102.911c20.895,0,40.323-6.245,56.554-16.945c0.269,0.301,0.47,0.64,0.759,0.929l54.38,54.38
			c8.169,8.168,21.413,8.168,29.583,0C252.354,236.017,252.354,222.773,244.186,214.604z M102.911,170.146
			c-37.134,0-67.236-30.102-67.236-67.235c0-37.134,30.103-67.236,67.236-67.236c37.132,0,67.235,30.103,67.235,67.236
			C170.146,140.044,140.043,170.146,102.911,170.146z"/>
	</symbol>
	<symbol id="cancel" viewBox="0 0 44 44">
		<path d="m22,0c-12.2,0-22,9.8-22,22s9.8,22 22,22 22-9.8 22-22-9.8-22-22-22zm3.2,22.4l7.5,7.5c0.2,0.2 0.3,0.5
			0.3,0.7s-0.1,0.5-0.3,0.7l-1.4,1.4c-0.2,0.2-0.5,0.3-0.7,0.3-0.3,0-0.5-0.1-0.7-0.3l-7.5-7.5c-0.2-0.2-0.5-0.2-0.7,0l-7.5,7.5c-0.2,0.2-0.5,0.3-0.7,0.3-0.3,0-0.5-0.1-0.7-0.3l-1.4-1.4c-0.2-0.2-0.3-0.5-0.3-0.7s0.1-0.5
			0.3-0.7l7.5-7.5c0.2-0.2 0.2-0.5 0-0.7l-7.5-7.5c-0.2-0.2-0.3-0.5-0.3-0.7s0.1-0.5 0.3-0.7l1.4-1.4c0.2-0.2
			0.5-0.3 0.7-0.3s0.5,0.1 0.7,0.3l7.5,7.5c0.2,0.2 0.5,0.2 0.7,0l7.5-7.5c0.2-0.2 0.5-0.3 0.7-0.3 0.3,0 0.5,0.1
			0.7,0.3l1.4,1.4c0.2,0.2 0.3,0.5 0.3,0.7s-0.1,0.5-0.3,0.7l-7.5,7.5c-0.2,0.1-0.2,0.5 3.55271e-15,0.7z"/>
	</symbol>
	<symbol id="location" viewBox="0 0 512 512">
		<path d="M256,0C156.748,0,76,80.748,76,180c0,33.534,9.289,66.26,26.869,94.652l142.885,230.257
			c2.737,4.411,7.559,7.091,12.745,7.091c0.04,0,0.079,0,0.119,0c5.231-0.041,10.063-2.804,12.75-7.292L410.611,272.22
			C427.221,244.428,436,212.539,436,180C436,80.748,355.252,0,256,0z M384.866,256.818L258.272,468.186l-129.905-209.34
			C113.734,235.214,105.8,207.95,105.8,180c0-82.71,67.49-150.2,150.2-150.2S406.1,97.29,406.1,180
			C406.1,207.121,398.689,233.688,384.866,256.818z"/>
		<path d="M256,90c-49.626,0-90,40.374-90,90c0,49.309,39.717,90,90,90c50.903,0,90-41.233,90-90C346,130.374,305.626,90,256,90z
			M256,240.2c-33.257,0-60.2-27.033-60.2-60.2c0-33.084,27.116-60.2,60.2-60.2s60.1,27.116,60.1,60.2
			C316.1,212.683,289.784,240.2,256,240.2z"/>
	</symbol>
	<symbol id="cart" viewBox="0 0 459.529 459.529">
		<path d="M17,55.231h48.733l69.417,251.033c1.983,7.367,8.783,12.467,16.433,12.467h213.35c6.8,0,12.75-3.967,15.583-10.2
			l77.633-178.5c2.267-5.383,1.7-11.333-1.417-16.15c-3.117-4.817-8.5-7.65-14.167-7.65H206.833c-9.35,0-17,7.65-17,17
			s7.65,17,17,17H416.5l-62.9,144.5H164.333L94.917,33.698c-1.983-7.367-8.783-12.467-16.433-12.467H17c-9.35,0-17,7.65-17,17
			S7.65,55.231,17,55.231z"/>
		<path d="M135.433,438.298c21.25,0,38.533-17.283,38.533-38.533s-17.283-38.533-38.533-38.533S96.9,378.514,96.9,399.764
			S114.183,438.298,135.433,438.298z"/>
		<path d="M376.267,438.298c0.85,0,1.983,0,2.833,0c10.2-0.85,19.55-5.383,26.35-13.317c6.8-7.65,9.917-17.567,9.35-28.05
			c-1.417-20.967-19.833-37.117-41.083-35.7c-21.25,1.417-37.117,20.117-35.7,41.083
			C339.433,422.431,356.15,438.298,376.267,438.298z"/>
	</symbol>
	<symbol id="user" viewBox="0 0 350 350">
		<path d="M175,171.173c38.914,0,70.463-38.318,70.463-85.586C245.463,38.318,235.105,0,175,0s-70.465,38.318-70.465,85.587
		C104.535,132.855,136.084,171.173,175,171.173z"/>
		<path d="M41.909,301.853C41.897,298.971,41.885,301.041,41.909,301.853L41.909,301.853z"/>
		<path d="M308.085,304.104C308.123,303.315,308.098,298.63,308.085,304.104L308.085,304.104z"/>
		<path d="M307.935,298.397c-1.305-82.342-12.059-105.805-94.352-120.657c0,0-11.584,14.761-38.584,14.761
			s-38.586-14.761-38.586-14.761c-81.395,14.69-92.803,37.805-94.303,117.982c-0.123,6.547-0.18,6.891-0.202,6.131
			c0.005,1.424,0.011,4.058,0.011,8.651c0,0,19.592,39.496,133.08,39.496c113.486,0,133.08-39.496,133.08-39.496
			c0-2.951,0.002-5.003,0.005-6.399C308.062,304.575,308.018,303.664,307.935,298.397z"/>
	</symbol>
	<symbol id="phone" viewBox="0 0 578.106 578.106">
		<path d="M577.83,456.128c1.225,9.385-1.635,17.545-8.568,24.48l-81.396,80.781
			c-3.672,4.08-8.465,7.551-14.381,10.404c-5.916,2.857-11.729,4.693-17.439,5.508c-0.408,0-1.635,0.105-3.676,0.309
			c-2.037,0.203-4.689,0.307-7.953,0.307c-7.754,0-20.301-1.326-37.641-3.979s-38.555-9.182-63.645-19.584
			c-25.096-10.404-53.553-26.012-85.376-46.818c-31.823-20.805-65.688-49.367-101.592-85.68
			c-28.56-28.152-52.224-55.08-70.992-80.783c-18.768-25.705-33.864-49.471-45.288-71.299
			c-11.425-21.828-19.993-41.616-25.705-59.364S4.59,177.362,2.55,164.51s-2.856-22.95-2.448-30.294
			c0.408-7.344,0.612-11.424,0.612-12.24c0.816-5.712,2.652-11.526,5.508-17.442s6.324-10.71,10.404-14.382L98.022,8.756
			c5.712-5.712,12.24-8.568,19.584-8.568c5.304,0,9.996,1.53,14.076,4.59s7.548,6.834,10.404,11.322l65.484,124.236
			c3.672,6.528,4.692,13.668,3.06,21.42c-1.632,7.752-5.1,14.28-10.404,19.584l-29.988,29.988c-0.816,0.816-1.53,2.142-2.142,3.978
			s-0.918,3.366-0.918,4.59c1.632,8.568,5.304,18.36,11.016,29.376c4.896,9.792,12.444,21.726,22.644,35.802
			s24.684,30.293,43.452,48.653c18.36,18.77,34.68,33.354,48.96,43.76c14.277,10.4,26.215,18.053,35.803,22.949
			c9.588,4.896,16.932,7.854,22.031,8.871l7.648,1.531c0.816,0,2.145-0.307,3.979-0.918c1.836-0.613,3.162-1.326,3.979-2.143
			l34.883-35.496c7.348-6.527,15.912-9.791,25.705-9.791c6.938,0,12.443,1.223,16.523,3.672h0.611l118.115,69.768
			C571.098,441.238,576.197,447.968,577.83,456.128z"/>
	</symbol>
</svg>